<?xml version="1.0" encoding="UTF-8" standalone="no"?>
<svg
   xmlns:dc="http://purl.org/dc/elements/1.1/"
   xmlns:cc="http://creativecommons.org/ns#"
   xmlns:rdf="http://www.w3.org/1999/02/22-rdf-syntax-ns#"
   xmlns:svg="http://www.w3.org/2000/svg"
   xmlns="http://www.w3.org/2000/svg"
   xmlns:sodipodi="http://sodipodi.sourceforge.net/DTD/sodipodi-0.dtd"
   xmlns:inkscape="http://www.inkscape.org/namespaces/inkscape"
   width="120.18038"
   height="380.00003"
   viewBox="0 0 31.797726 100.54167"
   version="1.1"
   id="svg8033"
   inkscape:version="1.0beta2 (2b71d25, 2019-12-03)"
   sodipodi:docname="HADSR.svg">
  <defs
     id="defs8027">
    <inkscape:path-effect
       effect="powerclip"
       id="path-effect3588"
       is_visible="true"
       lpeversion="1"
       inverse="true"
       flatten="false"
       hide_clip="false"
       message="Use fill-rule evenodd on &lt;b&gt;fill and stroke&lt;/b&gt; dialog if no flatten result after convert clip to paths." />
    <inkscape:path-effect
       message="Use fill-rule evenodd on &lt;b&gt;fill and stroke&lt;/b&gt; dialog if no flatten result after convert clip to paths."
       hide_clip="false"
       flatten="false"
       inverse="true"
       lpeversion="1"
       is_visible="true"
       id="path-effect3588-6"
       effect="powerclip" />
    <clipPath
       clipPathUnits="userSpaceOnUse"
       id="clipPath3618">
      <path
         style="display:inline;fill:#e60ce6;fill-opacity:1;fill-rule:nonzero;stroke:none;stroke-width:0.276024"
         d="M 84.642804,25.235117 H 116.29389 V 125.63122 H 84.642804 Z m 0,0"
         id="path3620"
         inkscape:connector-curvature="0" />
    </clipPath>
  </defs>
  <sodipodi:namedview
     id="base"
     pagecolor="#ffffff"
     bordercolor="#666666"
     borderopacity="1.0"
     inkscape:pageopacity="0.0"
     inkscape:pageshadow="2"
     inkscape:zoom="1.3913637"
     inkscape:cx="23.753489"
     inkscape:cy="231.28091"
     inkscape:document-units="mm"
     inkscape:current-layer="layer1"
     showgrid="false"
     fit-margin-top="0"
     fit-margin-left="0"
     fit-margin-right="0"
     fit-margin-bottom="0"
     inkscape:window-width="1792"
     inkscape:window-height="1075"
     inkscape:window-x="0"
     inkscape:window-y="23"
     inkscape:window-maximized="1"
     units="px"
     inkscape:document-rotation="0"
     showguides="true"
     inkscape:guide-bbox="true" />
  <metadata
     id="metadata8030">
    <rdf:RDF>
      <cc:Work
         rdf:about="">
        <dc:format>image/svg+xml</dc:format>
        <dc:type
           rdf:resource="http://purl.org/dc/dcmitype/StillImage" />
        <dc:title></dc:title>
      </cc:Work>
    </rdf:RDF>
  </metadata>
  <g
     inkscape:label="Layer 1"
     inkscape:groupmode="layer"
     id="layer1"
     transform="translate(-84.642804,-25.235117)"
     style="display:inline">
    <path
       inkscape:connector-curvature="0"
       id="path33441"
       d="M 84.642802,25.235117 H 116.29389 V 125.63122 H 84.642802 Z m 0,0"
       style="fill:#e6e6e6;fill-opacity:1;fill-rule:nonzero;stroke:none;stroke-width:0.276024" />
    <path
       inkscape:connector-curvature="0"
       id="path36497"
       d="m 114.66902,106.93601 c 0,-0.43022 -0.35258,-0.78279 -0.78279,-0.78279 h -6.00999 c -0.43129,0 -0.78278,0.35257 -0.78278,0.78279 v 9.52389 c 0,0.43021 0.35149,0.78279 0.78278,0.78279 h 6.00999 c 0.43021,0 0.78279,-0.35258 0.78279,-0.78279 z m 0,0"
       style="fill:#000000;fill-opacity:1;fill-rule:nonzero;stroke:none;stroke-width:0.276024" />
    <path
       d="m 99.157084,50.319592 c -2.734107,2.339986 7.306026,5.650242 3.967366,7.685821 -2.75471,1.679568 -3.183265,-7.412185 -6.249948,-5.291155 -1.515055,1.047922 2.019717,3.645555 0.328801,4.398999 -1.856627,0.827227 -1.484874,-3.735267 -3.499389,-3.32079 -3.334044,0.685983 3.094261,9.729212 -0.758697,10.17221 -3.729469,0.428836 1.225323,-9.828745 -1.801002,-9.899403 -1.795675,-0.04195 -0.809509,4.2881 -2.656702,3.932327 -2.028238,-0.390735 1.253254,-3.841785 -0.548643,-4.807913 -5.552364,-2.976851 -4.104653,9.391072 -7.82761,7.443902 -4.47439,-2.340341 7.049665,-5.658051 4.830164,-10.028527 -1.511861,-2.977088 -3.057334,4.730392 -5.338378,2.197843 -1.899589,-2.109077 6.077737,-1.98445 2.860507,-5.019768 -1.3419,-1.266038 -3.343156,3.16823 -3.975879,1.412324 -0.694741,-1.927995 3.874923,-1.467596 3.90416,-3.535485 0.06946,-4.910882 -10.080725,1.943499 -10.315067,-1.261659 -0.280689,-3.838945 9.796435,1.530087 10.331636,-2.637529 0.233123,-1.815202 -9.843424,-0.85111 -9.326333,-2.586282 0.567746,-1.905152 8.663072,2.19086 9.34941,0.274098 0.625136,-1.745729 -3.878238,-2.507695 -2.910218,-4.079561 1.062909,-1.725963 3.112252,2.137009 4.440898,0.594767 1.210056,-1.404631 -2.589831,-2.751623 -1.150275,-3.913509 1.580507,-1.275742 2.825356,3.773969 4.478415,2.632085 3.486604,-2.408276 -5.800911,-8.531818 -2.507103,-9.917986 3.635258,-1.52985 1.216922,8.877769 5.598049,8.157345 1.791058,-0.294513 -1.101419,-4.172587 0.737324,-4.313073 2.019005,-0.15424 -0.535626,4.041686 1.521917,4.244191 1.873907,0.184491 0.940377,-4.105243 2.712093,-3.651235 1.945274,0.498438 -1.304973,4.590733 0.572969,5.209253 1.710338,0.56332 2.587465,-4.676185 4.232471,-3.775862 1.80609,0.988531 -2.728072,4.313546 -1.156833,5.600415 1.431023,1.17204 4.732883,-6.939359 6.975113,-4.327276 2.32874,2.712921 -7.198211,3.80119 -4.65512,5.748476 1.45635,1.115136 3.32209,-1.624652 3.97588,0.06613 0.7179,1.85639 -4.03849,1.398358 -3.60377,3.33156 0.92921,4.132109 6.97604,-3.033307 7.69658,0.04078 1.17013,4.99231 -4.69606,0.337867 -6.4554,3.266229 -1.62927,2.712092 8.14787,2.238793 7.696,4.037426 -0.81532,3.245042 -7.7179,-5.227599 -8.95873,-0.552941 -2.701915,2.355609 6.0704,4.171758 4.76093,6.171357 -2.15168,1.091844 -4.85987,-5.21671 -7.275608,-3.69763 z"
       style="fill:#c40000;fill-opacity:1;stroke-width:0.118354"
       sodipodi:nodetypes="csssssssssssssssssssssssssssssssssssssccc"
       id="path2854"
       inkscape:connector-curvature="0"
       clip-path="url(#clipPath3618)" />
    <g
       style="font-size:3.8823px;line-height:1.25;font-family:'Geometric Sans Serif v1';-inkscape-font-specification:'Geometric Sans Serif v1';stroke-width:0.0970577"
       id="text2926"
       transform="scale(1.0145653,0.98564381)"
       aria-label="Gate/Retrig/Out">
      <path
         id="path17666"
         style="font-style:normal;font-variant:normal;font-weight:normal;font-stretch:normal;font-family:'Marker Felt';-inkscape-font-specification:'Marker Felt';stroke-width:0.0970577"
         d="m 87.193882,110.40153 q -0.05435,0.0699 -0.182468,0.0738 -0.108704,0.004 -0.213526,0.004 -0.05047,0.40376 -0.190233,0.73376 -0.147528,0.34164 -0.314466,0.41152 -0.02718,0.0117 -0.06212,0.0117 -0.155292,0 -0.35329,-0.17471 -0.217408,-0.19411 -0.357171,-0.49305 -0.159174,-0.35717 -0.159174,-0.76869 0.0039,-0.67941 0.190232,-1.19963 0.221291,-0.62117 0.601757,-0.62505 0.283408,-0.004 0.461993,0.35717 0.135881,0.26788 0.190233,0.69105 0.06212,0.0776 0.06212,0.17082 0,0.0971 -0.06212,0.15917 -0.06212,0.0582 -0.155292,0.0582 -0.104822,0 -0.225173,-0.0505 -0.116469,-0.0543 -0.155292,-0.11259 -0.02329,-0.0349 -0.02329,-0.0738 0,0.0194 0.03106,-0.15141 -0.05435,-0.45035 -0.124233,-0.45035 -0.06212,0 -0.159175,0.42705 -0.104822,0.44647 -0.104822,0.79199 0,0.24459 0.07765,0.55517 0.08153,0.3067 0.139763,0.3067 0.05435,0 0.124234,-0.16694 0.06988,-0.16693 0.09318,-0.33776 -0.09318,-0.0427 -0.18635,-0.14752 -0.104823,-0.11647 -0.104823,-0.21353 0,-0.0621 0.05435,-0.10482 0.05435,-0.0466 0.182468,-0.0505 0.345524,-0.008 0.380465,-0.0116 0.05823,-0.0272 0.120351,-0.0543 0.066,-0.0311 0.116469,-0.0311 0.120352,0 0.232938,0.10871 0.116469,0.1087 0.116469,0.22905 0,0.0738 -0.0427,0.12812 z" />
      <path
         id="path17668"
         style="font-style:normal;font-variant:normal;font-weight:normal;font-stretch:normal;font-family:'Marker Felt';-inkscape-font-specification:'Marker Felt';stroke-width:0.0970577"
         d="m 89.068127,111.37987 q -0.05823,0.19023 -0.28729,0.19023 -0.07765,0 -0.124234,-0.0272 -0.06212,-0.0427 -0.08541,-0.17082 -0.04659,-0.22129 -0.09318,-0.34552 -0.01165,0.21352 -0.232938,0.43481 -0.221291,0.21741 -0.446464,0.21741 -0.283408,0 -0.392112,-0.37658 -0.03882,-0.13976 -0.03882,-0.264 0,-0.36105 0.368818,-0.61728 0.30282,-0.17859 0.609521,-0.35329 0.01553,-0.066 0.01553,-0.12812 0,-0.12035 -0.066,-0.13976 -0.066,-0.0233 -0.112586,-0.0233 -0.08153,0 -0.135881,0.0543 -0.05047,0.0505 -0.09706,0.0971 -0.04659,0.031 -0.120352,0.14364 -0.05823,0.0893 -0.128116,0.0971 -0.100939,0.0117 -0.182468,-0.0699 -0.08153,-0.0815 -0.08153,-0.19024 0,-0.0621 0.03106,-0.11258 0.08929,-0.14753 0.267879,-0.25623 0.271761,-0.16306 0.679403,-0.16306 0.260114,0 0.357171,0.24847 0.06212,0.16694 0.09318,0.62505 0.03494,0.55517 0.08541,0.8114 0.0078,0.0505 0.066,0.12811 0.05823,0.0777 0.05823,0.13588 0,0.0272 -0.0078,0.0544 z m -0.67552,-0.95505 q -0.116469,0.0621 -0.232938,0.12812 -0.112587,0.066 -0.209644,0.1747 -0.139763,0.15917 -0.139763,0.27176 0,0.0932 0.06988,0.19412 0.03882,0.0543 0.08541,0.0543 0.10094,0 0.217409,-0.22518 0.120351,-0.22517 0.209644,-0.59787 z" />
      <path
         id="path17670"
         style="font-style:normal;font-variant:normal;font-weight:normal;font-stretch:normal;font-family:'Marker Felt';-inkscape-font-specification:'Marker Felt';stroke-width:0.0970577"
         d="m 90.573059,109.78036 q -0.03106,0 -0.09706,-0.0233 -0.066,-0.0272 -0.10094,-0.0272 -0.02718,0 -0.05435,0.0117 l -0.143646,0.0738 v 1.32775 q 0,0.0738 0.07765,0.19023 0.08153,0.11647 0.066,0.18635 -0.01941,0.0854 -0.116469,0.13588 -0.09318,0.0505 -0.20188,0.0505 -0.205762,0 -0.283408,-0.18247 -0.02329,-0.0543 -0.02718,-0.34552 -0.0039,-0.19412 0.0039,-0.60564 0.0078,-0.46588 0.0078,-0.59011 -0.02329,0.008 -0.07765,0.0543 -0.05435,0.0427 -0.108705,0.0427 -0.0427,0 -0.108704,-0.0233 -0.271761,-0.0932 -0.271761,-0.19023 0,-0.0233 0.01165,-0.0505 0.02718,-0.0621 0.10094,-0.0699 0.112586,-0.0155 0.13588,-0.0272 0.08929,-0.0349 0.326113,-0.16694 v -0.33776 q 0,-0.0388 -0.02329,-0.10094 -0.01941,-0.066 -0.01941,-0.097 0,-0.0349 0.01941,-0.066 0.100939,-0.1553 0.271761,-0.1553 0.197997,0 0.279525,0.1553 0.03106,0.0621 0.03106,0.10094 0,0.0466 -0.04659,0.0971 -0.04659,0.0505 -0.04659,0.0932 v 0.19023 q 0.06988,-0.0311 0.155292,-0.10482 0.066,-0.0543 0.112587,-0.0543 0.01941,0 0.0427,0.008 0.244585,0.066 0.244585,0.29506 0,0.0738 -0.04659,0.13976 -0.04271,0.066 -0.112587,0.066 z" />
      <path
         id="path17672"
         style="font-style:normal;font-variant:normal;font-weight:normal;font-stretch:normal;font-family:'Marker Felt';-inkscape-font-specification:'Marker Felt';stroke-width:0.0970577"
         d="m 92.229892,111.13528 q -0.03106,0.14753 -0.209644,0.31447 -0.02718,0.0427 -0.213527,0.11258 -0.213526,0.0815 -0.368818,0.0699 -0.291173,-0.0194 -0.458112,-0.33388 -0.151409,-0.29117 -0.151409,-0.71435 0,-0.45811 0.170821,-0.80363 0.190233,-0.38047 0.508581,-0.42705 0.06212,-0.008 0.120352,-0.008 0.461993,0 0.508581,0.56682 0.02329,0.26011 -0.205762,0.56681 -0.248467,0.33776 -0.636697,0.47364 0.0427,0.1553 0.066,0.20188 0.05435,0.0971 0.147527,0.0971 0.08929,0 0.190233,-0.0699 0.08541,-0.0582 0.116469,-0.11259 0.01553,-0.008 0.03106,-0.0854 0.01553,-0.0815 0.08153,-0.11647 0.02329,-0.0116 0.05435,-0.0116 0.09318,0 0.178586,0.0932 0.08929,0.0893 0.06988,0.18635 z m -0.609521,-1.36657 q -0.155292,0 -0.25235,0.22129 -0.128115,0.29506 -0.104822,0.58235 0.182468,-0.0582 0.33776,-0.27176 0.155292,-0.21353 0.155292,-0.38047 0,-0.15141 -0.13588,-0.15141 z" />
      <path
         id="path17674"
         style="font-style:normal;font-variant:normal;font-weight:normal;font-stretch:normal;font-family:'Marker Felt';-inkscape-font-specification:'Marker Felt';stroke-width:0.0970577"
         d="m 94.443895,108.67779 q 0,0.0466 -0.07765,0.11646 -0.09318,0.0776 -0.116469,0.12424 l -1.195748,2.26726 q -0.02329,0.0388 -0.08929,0.25623 -0.04659,0.13977 -0.104822,0.15141 -0.09318,0.0194 -0.236821,-0.0621 -0.159174,-0.0932 -0.159174,-0.2213 0.0039,-0.0621 0.05435,-0.12423 0.07376,-0.0893 0.08541,-0.1087 l 1.281159,-2.39926 q 0.01553,-0.0272 0.0427,-0.1553 0.02329,-0.0932 0.08153,-0.12423 0.03882,-0.0194 0.08929,-0.0194 0.120352,0 0.232938,0.0854 0.116469,0.0971 0.112587,0.21353 z" />
      <path
         id="path17676"
         style="font-style:normal;font-variant:normal;font-weight:normal;font-stretch:normal;font-family:'Marker Felt';-inkscape-font-specification:'Marker Felt';stroke-width:0.0970577"
         d="m 96.787591,111.28669 q 0.0039,0.0233 0.0039,0.0427 0,0.11647 -0.135881,0.19799 -0.13588,0.0777 -0.283408,0.0777 -0.08929,0 -0.143645,-0.0349 -0.03882,-0.0233 -0.06988,-0.0893 -0.02718,-0.0699 -0.06212,-0.0932 l -0.857988,-0.57458 0.03494,0.35717 q 0.0039,0.0272 0.05823,0.11259 0.05823,0.0854 0.05823,0.14364 0,0.0854 -0.108705,0.15918 -0.066,0.0466 -0.166939,0.0466 -0.143645,0 -0.267878,-0.0777 -0.135881,-0.0776 -0.163057,-0.198 -0.0039,-0.0233 -0.0039,-0.0388 0,-0.0543 0.05047,-0.0932 0.05435,-0.0427 0.05435,-0.0776 l -0.124234,-2.21291 q -0.0039,-0.0505 -0.0427,-0.132 -0.03882,-0.0854 -0.03882,-0.12423 0,-0.10094 0.131998,-0.16306 0.108705,-0.0543 0.221291,-0.0543 0.07376,0 0.128116,0.0233 0.05435,0.0194 0.07376,0.066 0.01941,0.0427 0.04659,0.0427 0.0039,0.004 0.236821,-0.0854 0.271761,-0.10094 0.477523,-0.10094 0.298937,0 0.481405,0.20965 0.05047,0.0582 0.05047,0.16306 0,0.2834 -0.326114,0.79975 -0.310583,0.48529 -0.640579,0.77646 l 1.001633,0.69881 q 0.0039,0.004 0.194115,0.0932 0.108705,0.0505 0.131999,0.13976 z m -1.040457,-2.41091 q -0.08541,0 -0.271761,0.16306 -0.03882,0.0311 -0.28729,0.26788 l -0.0078,0.69493 q 0.240703,-0.264 0.434818,-0.58623 0.194115,-0.32611 0.194115,-0.46587 0,-0.0738 -0.06212,-0.0738 z" />
      <path
         id="path17678"
         style="font-style:normal;font-variant:normal;font-weight:normal;font-stretch:normal;font-family:'Marker Felt';-inkscape-font-specification:'Marker Felt';stroke-width:0.0970577"
         d="m 98.328627,111.13528 q -0.03106,0.14753 -0.209644,0.31447 -0.02718,0.0427 -0.213526,0.11258 -0.213527,0.0815 -0.368819,0.0699 -0.291172,-0.0194 -0.458111,-0.33388 -0.15141,-0.29117 -0.15141,-0.71435 0,-0.45811 0.170821,-0.80363 0.190233,-0.38047 0.508582,-0.42705 0.06212,-0.008 0.120351,-0.008 0.461994,0 0.508581,0.56682 0.02329,0.26011 -0.205762,0.56681 -0.248467,0.33776 -0.636697,0.47364 0.0427,0.1553 0.066,0.20188 0.05435,0.0971 0.147528,0.0971 0.08929,0 0.190232,-0.0699 0.08541,-0.0582 0.116469,-0.11259 0.01553,-0.008 0.03106,-0.0854 0.01553,-0.0815 0.08153,-0.11647 0.02329,-0.0116 0.05435,-0.0116 0.09317,0 0.178586,0.0932 0.08929,0.0893 0.06988,0.18635 z m -0.609521,-1.36657 q -0.155292,0 -0.252349,0.22129 -0.128116,0.29506 -0.104822,0.58235 0.182468,-0.0582 0.33776,-0.27176 0.155292,-0.21353 0.155292,-0.38047 0,-0.15141 -0.135881,-0.15141 z" />
      <path
         id="path17680"
         style="font-style:normal;font-variant:normal;font-weight:normal;font-stretch:normal;font-family:'Marker Felt';-inkscape-font-specification:'Marker Felt';stroke-width:0.0970577"
         d="m 99.951423,109.78036 q -0.03106,0 -0.09706,-0.0233 -0.066,-0.0272 -0.10094,-0.0272 -0.02718,0 -0.05435,0.0117 l -0.143645,0.0738 v 1.32775 q 0,0.0738 0.07765,0.19023 0.08153,0.11647 0.066,0.18635 -0.01941,0.0854 -0.116469,0.13588 -0.09318,0.0505 -0.201879,0.0505 -0.205762,0 -0.283408,-0.18247 -0.02329,-0.0543 -0.02718,-0.34552 -0.0039,-0.19412 0.0039,-0.60564 0.0078,-0.46588 0.0078,-0.59011 -0.02329,0.008 -0.07765,0.0543 -0.05435,0.0427 -0.108704,0.0427 -0.0427,0 -0.108704,-0.0233 -0.271761,-0.0932 -0.271761,-0.19023 0,-0.0233 0.01165,-0.0505 0.02718,-0.0621 0.100939,-0.0699 0.112587,-0.0155 0.135881,-0.0272 0.08929,-0.0349 0.326113,-0.16694 v -0.33776 q 0,-0.0388 -0.02329,-0.10094 -0.01941,-0.066 -0.01941,-0.097 0,-0.0349 0.01941,-0.066 0.10094,-0.1553 0.271761,-0.1553 0.197998,0 0.279526,0.1553 0.03106,0.0621 0.03106,0.10094 0,0.0466 -0.04659,0.0971 -0.04659,0.0505 -0.04659,0.0932 v 0.19023 q 0.06988,-0.0311 0.155292,-0.10482 0.066,-0.0543 0.112587,-0.0543 0.01941,0 0.0427,0.008 0.244588,0.066 0.244588,0.29506 0,0.0738 -0.0466,0.13976 -0.0427,0.066 -0.112587,0.066 z" />
      <path
         id="path17682"
         style="font-style:normal;font-variant:normal;font-weight:normal;font-stretch:normal;font-family:'Marker Felt';-inkscape-font-specification:'Marker Felt';stroke-width:0.0970577"
         d="m 101.88287,109.56295 q -0.0155,0.0815 -0.14753,0.11259 -0.15529,0.0388 -0.198,0.0893 l -0.63281,0.72987 v 0.59011 q 0,0.0854 0.0466,0.17471 0.0505,0.0854 0.0505,0.13199 0,0.0466 -0.0272,0.10483 -0.066,0.14752 -0.26788,0.14752 -0.13976,0 -0.22129,-0.0893 -0.0543,-0.0582 -0.0543,-0.14753 0,-0.0311 0.008,-0.10094 0.008,-0.0699 0.008,-0.11258 v -1.45198 q 0,-0.0349 -0.0311,-0.0854 -0.0311,-0.0505 -0.0311,-0.0815 0,-0.0233 0.0155,-0.0544 0.0505,-0.0932 0.31447,-0.0932 0.20576,0 0.23293,0.0971 0.0116,0.0388 0.0116,0.066 0,0.0427 -0.0311,0.066 -0.0311,0.0233 -0.0311,0.0466 l 0.008,0.13977 0.33388,-0.35329 q 0.0582,-0.066 0.12035,-0.132 0.066,-0.066 0.15141,-0.0738 0.132,-0.0116 0.25235,0.0582 0.12423,0.0699 0.12423,0.18247 0,0.0194 -0.004,0.0388 z" />
      <path
         id="path17684"
         style="font-style:normal;font-variant:normal;font-weight:normal;font-stretch:normal;font-family:'Marker Felt';-inkscape-font-specification:'Marker Felt';stroke-width:0.0970577"
         d="m 102.69124,108.6312 q 0.0116,0.0116 0.0116,0.0388 0,0.0349 -0.0233,0.12035 -0.0272,0.10482 -0.0349,0.14365 -0.008,0.0388 0.008,0.17082 0,0.0815 -0.0505,0.1087 -0.0466,0.0233 -0.12035,0.0233 -0.10482,0 -0.21352,-0.0427 -0.132,-0.0543 -0.132,-0.14364 0,-0.0272 0.0233,-0.0738 0.0233,-0.0505 0.0272,-0.0815 0.008,-0.031 0,-0.15529 -0.008,-0.0971 0.0388,-0.132 0.0621,-0.0466 0.22129,-0.0466 0.17471,0 0.24459,0.0699 z m 0.0505,0.94728 q 0,0.0543 -0.0621,0.17082 -0.0582,0.11259 -0.0582,0.18635 v 1.1414 q 0,0.0776 0.0427,0.22129 0.0427,0.13976 0.0427,0.19411 0,0.0776 -0.0621,0.11647 -0.0971,0.0621 -0.20965,0.0621 -0.14752,0 -0.20964,-0.10094 -0.0815,-0.12423 -0.0815,-0.74152 0,-0.14753 0.004,-0.45811 0.008,-0.31447 0.008,-0.45811 0,-0.0544 -0.0117,-0.13977 -0.0116,-0.0893 -0.0116,-0.12811 0,-0.12812 0.0932,-0.22129 0.0388,-0.0388 0.14365,-0.0388 0.10482,0 0.20964,0.0349 0.10482,0.0311 0.132,0.0738 0.0311,0.0427 0.0311,0.0854 z" />
      <path
         id="path17686"
         style="font-style:normal;font-variant:normal;font-weight:normal;font-stretch:normal;font-family:'Marker Felt';-inkscape-font-specification:'Marker Felt';stroke-width:0.0970577"
         d="m 104.35553,109.48142 q 0.008,0.33388 0.0349,1.09869 0.0155,0.53964 0.0155,0.77258 0,0.51246 -0.0815,0.69881 -0.0815,0.18635 -0.32999,0.20577 -0.31059,0.0272 -0.54741,-0.16306 -0.11647,-0.0349 -0.14752,-0.0543 -0.066,-0.0388 -0.0854,-0.132 -0.0349,-0.18247 0.28729,-0.18247 0.0815,0 0.1553,0.0194 0.0543,0.0117 0.12035,0.0893 0.066,0.0815 0.12423,0.0854 0.11259,0.008 0.11259,-0.31835 0,-0.13977 -0.0194,-0.45423 -0.13977,0.23682 -0.20188,0.3067 -0.12812,0.132 -0.29894,0.132 -0.2407,0 -0.38823,-0.33388 -0.13588,-0.3067 -0.13588,-0.7454 0,-0.45035 0.14364,-0.76093 0.16306,-0.34941 0.45035,-0.35717 0.15529,-0.004 0.22906,0.0621 0.0738,0.066 0.14364,0.13588 -0.0505,-0.13976 0.0233,-0.20964 0.0427,-0.0427 0.12811,-0.0427 0.0815,0 0.16306,0.0427 0.0815,0.0427 0.10482,0.10482 z m -0.46588,0.98999 q 0.0155,-0.22518 -0.0543,-0.42705 -0.0776,-0.22518 -0.20188,-0.22518 -0.10094,0 -0.17858,0.22518 -0.0699,0.20187 -0.0777,0.42705 -0.008,0.23682 0.0349,0.42705 0.0543,0.22517 0.15141,0.22517 0.0854,0 0.198,-0.2174 0.11259,-0.2213 0.12811,-0.43482 z" />
      <path
         id="path17688"
         style="font-style:normal;font-variant:normal;font-weight:normal;font-stretch:normal;font-family:'Marker Felt';-inkscape-font-specification:'Marker Felt';stroke-width:0.0970577"
         d="m 106.67163,108.67779 q 0,0.0466 -0.0776,0.11646 -0.0932,0.0776 -0.11647,0.12424 l -1.19575,2.26726 q -0.0233,0.0388 -0.0893,0.25623 -0.0466,0.13977 -0.10482,0.15141 -0.0932,0.0194 -0.23682,-0.0621 -0.15918,-0.0932 -0.15918,-0.2213 0.004,-0.0621 0.0543,-0.12423 0.0738,-0.0893 0.0854,-0.1087 l 1.28115,-2.39926 q 0.0155,-0.0272 0.0427,-0.1553 0.0233,-0.0932 0.0815,-0.12423 0.0388,-0.0194 0.0893,-0.0194 0.12035,0 0.23294,0.0854 0.11647,0.0971 0.11259,0.21353 z" />
      <path
         id="path17690"
         style="fill:#ffffff"
         d="m 108.70389,109.91236 q 0.0272,0.52023 -0.17859,1.07539 -0.20576,0.55129 -0.4387,0.62117 -0.0932,0.0311 -0.18247,0.0233 -0.0932,-0.0117 -0.18247,-0.0233 -0.79975,-0.0932 -0.88128,-1.69656 -0.0233,-0.43482 0.13977,-0.93175 0.15141,-0.462 0.31446,-0.5707 0.0388,-0.0272 0.0854,-0.0272 0.0349,0 0.10871,0.0233 0.0738,0.0194 0.11258,0.0194 0.0466,0 0.16694,-0.0194 0.12424,-0.0233 0.18247,-0.0233 0.0543,0 0.0893,0.0155 0.60176,0.24458 0.66388,1.5141 z m -0.52411,0 q -0.0388,-0.48529 -0.10483,-0.72988 -0.1087,-0.41152 -0.32223,-0.41152 -0.0582,0 -0.12423,0.0311 -0.0621,0.0311 -0.16694,0.39988 -0.1087,0.40376 -0.1087,0.71046 0,0.39987 0.13976,0.84246 0.13976,0.4387 0.26788,0.4387 0.12035,0 0.26788,-0.396 0.15529,-0.41152 0.15529,-0.78034 0,-0.0543 -0.004,-0.10482 z" />
      <path
         id="path17692"
         style="fill:#ffffff"
         d="m 110.46505,109.64836 q 0.008,0.0582 -0.0233,0.12423 -0.0388,0.0893 -0.0466,0.132 0,0.80752 -0.066,1.12199 -0.14364,0.65999 -0.60952,0.65999 -0.6794,0 -0.6794,-1.23846 0,-0.33387 0.0505,-0.70657 -0.0272,-0.0893 -0.0272,-0.15918 0,-0.11259 0.0738,-0.19023 0.0621,-0.066 0.18246,-0.066 0.0971,0 0.18247,0.0427 0.0854,0.0388 0.10094,0.0932 0.008,0.0272 0.008,0.0543 0,0.0505 -0.0427,0.16306 -0.0427,0.1087 -0.0349,0.17858 -0.0388,0.21741 -0.0388,0.54741 0,0.33388 0.0427,0.55517 0.0544,0.25623 0.15141,0.25623 0.16306,0 0.21353,-0.55129 0.0272,-0.27564 0.0272,-0.8774 0,-0.0388 -0.0117,-0.11258 -0.0116,-0.0738 -0.0116,-0.10871 0,-0.0932 0.0699,-0.12811 0.0388,-0.0194 0.10871,-0.0194 0.12811,0 0.23682,0.0544 0.12811,0.066 0.14364,0.1747 z" />
      <path
         id="path17694"
         style="fill:#ffffff"
         d="m 112.14178,109.78036 q -0.031,0 -0.097,-0.0233 -0.066,-0.0272 -0.10094,-0.0272 -0.0272,0 -0.0544,0.0117 l -0.14364,0.0738 v 1.32775 q 0,0.0738 0.0777,0.19023 0.0815,0.11647 0.066,0.18635 -0.0194,0.0854 -0.11646,0.13588 -0.0932,0.0505 -0.20188,0.0505 -0.20577,0 -0.28341,-0.18247 -0.0233,-0.0543 -0.0272,-0.34552 -0.004,-0.19412 0.004,-0.60564 0.008,-0.46588 0.008,-0.59011 -0.0233,0.008 -0.0776,0.0543 -0.0543,0.0427 -0.1087,0.0427 -0.0427,0 -0.10871,-0.0233 -0.27176,-0.0932 -0.27176,-0.19023 0,-0.0233 0.0117,-0.0505 0.0272,-0.0621 0.10094,-0.0699 0.11259,-0.0155 0.13588,-0.0272 0.0893,-0.0349 0.32611,-0.16694 v -0.33776 q 0,-0.0388 -0.0233,-0.10094 -0.0194,-0.066 -0.0194,-0.097 0,-0.0349 0.0194,-0.066 0.10094,-0.1553 0.27176,-0.1553 0.198,0 0.27953,0.1553 0.031,0.0621 0.031,0.10094 0,0.0466 -0.0466,0.0971 -0.0466,0.0505 -0.0466,0.0932 v 0.19023 q 0.0699,-0.0311 0.15529,-0.10482 0.066,-0.0543 0.11259,-0.0543 0.0194,0 0.0427,0.008 0.24459,0.066 0.24459,0.29506 0,0.0738 -0.0466,0.13976 -0.0427,0.066 -0.11259,0.066 z" />
    </g>
    <g
       style="font-size:6.0765px;line-height:1.25;font-family:'Geometric Sans Serif v1';-inkscape-font-specification:'Geometric Sans Serif v1';stroke-width:0.151913"
       id="text2930"
       aria-label="!ADSR">
      <path
         id="path17617"
         style="font-style:normal;font-variant:normal;font-weight:normal;font-stretch:normal;font-family:'Marker Felt';-inkscape-font-specification:'Marker Felt';stroke-width:0.151913"
         d="m 93.97618,28.026026 q 0.01215,0.04253 0.01215,0.08507 0,0.06076 -0.04254,0.182295 -0.04254,0.115453 -0.04254,0.194448 v 2.017398 q 0,0.09115 0.04254,0.249136 0.04861,0.157989 0.04861,0.224831 0,0.115453 -0.09722,0.188371 -0.09115,0.06684 -0.236984,0.06684 -0.315978,0 -0.48612,-0.218754 -0.05469,-0.07292 -0.05469,-0.164066 0,-0.03038 0.01215,-0.109377 0.01215,-0.08507 0.0061,-0.139759 -0.05469,-0.759563 -0.05469,-1.567737 0,-1.051235 0.09115,-1.154535 0.06684,-0.07899 0.303825,-0.07899 0.437508,0 0.498273,0.224831 z m 0,3.828195 q 0.03038,0.06684 0.03038,0.145836 0,0.05469 -0.02431,0.176218 -0.01823,0.12153 -0.01823,0.188372 0,-0.01215 0.01823,0.182295 0.0061,0.1033 -0.04254,0.176218 -0.06684,0.109377 -0.249136,0.109377 -0.315978,0 -0.480044,-0.212677 -0.04254,-0.06077 -0.04254,-0.188372 0,-0.04861 0.01215,-0.218754 0.01215,-0.151912 0.0061,-0.249136 0,-0.01823 -0.01823,-0.127607 -0.01823,-0.07292 0.0061,-0.127606 0.04861,-0.115454 0.273443,-0.115454 0.413202,0 0.528655,0.26129 z" />
      <path
         id="path17619"
         style="font-style:normal;font-variant:normal;font-weight:normal;font-stretch:normal;font-family:'Marker Felt';-inkscape-font-specification:'Marker Felt';stroke-width:0.151913"
         d="m 97.846537,31.416713 q -0.04254,0.07899 -0.188372,0.09722 -0.01215,0 -0.261289,0.01215 0.04254,0.273442 0.315978,0.680568 0.157989,0.115453 0.157989,0.303825 0,0.297748 -0.36459,0.297748 -0.346361,0 -0.473967,-0.176218 -0.04254,-0.06077 -0.05469,-0.164066 0,-0.06684 -0.0061,-0.139759 -0.05469,-0.05469 -0.328131,-0.704874 -0.498273,0.07292 -1.227453,0.206601 -0.07292,0.176218 -0.157989,0.510426 0.01215,0.06076 0.01215,0.115453 0,0.164066 -0.109377,0.249137 -0.109377,0.09115 -0.26129,0.09115 -0.170142,0 -0.315978,-0.127606 -0.145836,-0.127607 -0.145836,-0.297749 0,-0.151912 0.13976,-0.273442 0.455737,-2.315147 1.105923,-3.828195 -0.01215,-0.07292 -0.01215,-0.145836 0,-0.303825 0.206601,-0.401049 0.08507,-0.03646 0.218754,-0.03646 0.255213,0 0.425355,0.07899 0.218754,0.109377 0.218754,0.328131 0,0.200525 -0.109377,0.358514 0.115453,1.033005 0.498273,2.381988 0.03646,-0.0061 0.249136,-0.06076 0.127607,-0.03646 0.194448,-0.03646 0.079,0 0.127607,0.03646 0.212677,0.164065 0.212677,0.401049 0,0.127606 -0.06684,0.24306 z m -1.45836,-0.461814 q -0.103301,-0.38282 -0.328131,-1.470513 -0.431432,0.941857 -0.510426,1.616349 z" />
      <path
         id="path17621"
         style="font-style:normal;font-variant:normal;font-weight:normal;font-stretch:normal;font-family:'Marker Felt';-inkscape-font-specification:'Marker Felt';stroke-width:0.151913"
         d="m 100.92646,28.694441 q 0.0243,0.407125 -0.27952,1.427977 -0.32205,1.09377 -0.729177,1.865486 -0.492197,0.917551 -0.899322,0.917551 -0.206601,0 -0.401049,-0.182295 -0.188372,-0.182295 -0.188372,-0.376743 0,-0.09115 0.05469,-0.164065 -0.09722,-2.618972 -0.07292,-3.560829 -0.127607,-0.206601 -0.127607,-0.309902 0,-0.145836 0.164066,-0.255213 0.145836,-0.1033 0.303825,-0.1033 0.145836,0 0.24306,0.08507 0.789945,-0.309902 1.051235,-0.309902 0.13976,0 0.27344,0.06684 0.20053,0.09722 0.38282,0.340284 0.2066,0.279519 0.22483,0.559038 z m -0.8264,-0.182295 q -0.0608,-0.07292 -0.157991,-0.07292 -0.188372,0 -0.741333,0.437508 -0.03646,0.455737 -0.03646,1.008699 0,0.789945 0.07292,1.628502 0.322054,-0.783869 0.595497,-1.646732 0.291668,-0.929704 0.291668,-1.239606 0,-0.08507 -0.0243,-0.115453 z" />
      <path
         id="path17623"
         style="font-style:normal;font-variant:normal;font-weight:normal;font-stretch:normal;font-family:'Marker Felt';-inkscape-font-specification:'Marker Felt';stroke-width:0.151913"
         d="m 103.88106,31.64762 q 0,0.473967 -0.30382,0.83248 -0.29775,0.352437 -0.74133,0.352437 -0.89325,0 -1.31253,-0.85071 -0.45573,-0.297748 -0.45573,-0.504349 0,-0.103301 0.1276,-0.170142 0.24914,-0.133683 0.45574,-0.133683 0.44966,0 0.60157,0.534732 0.0729,0.145836 0.15192,0.291672 0.079,0.145836 0.21267,0.145836 0.35852,0 0.35852,-0.510426 0,-0.455738 -0.16407,-0.613727 -0.0729,-0.06684 -0.58334,-0.279519 -0.40713,-0.170142 -0.65627,-0.583344 -0.22483,-0.376743 -0.2309,-0.783868 -0.006,-0.656262 0.32813,-1.166688 0.35244,-0.546885 0.87501,-0.546885 0.60765,0 0.88717,0.48612 0.1823,0.303825 0.2066,0.753486 0.0668,0.230907 0.0668,0.419278 0,0.12153 -0.0304,0.200525 -0.0911,0.22483 -0.35851,0.22483 -0.20052,0 -0.36459,-0.145836 -0.18229,-0.157989 -0.22483,-0.443584 -0.0182,-0.09722 0.0365,-0.194448 0.0608,-0.09722 0.0608,-0.109377 0,-0.01215 -0.0122,-0.02431 0.006,-0.03038 0.006,-0.06076 0,-0.182295 -0.21268,-0.170142 -0.2066,0.01215 -0.32205,0.273442 -0.10331,0.224831 -0.0911,0.516503 0.0182,0.516502 0.68057,0.826404 0.52257,0.24306 0.7231,0.480043 0.28559,0.340284 0.28559,0.954011 z" />
      <path
         id="path17625"
         style="font-style:normal;font-variant:normal;font-weight:normal;font-stretch:normal;font-family:'Marker Felt';-inkscape-font-specification:'Marker Felt';stroke-width:0.151913"
         d="m 107.60131,32.25527 q 0.006,0.03646 0.006,0.06684 0,0.182295 -0.21267,0.309902 -0.21268,0.12153 -0.44359,0.12153 -0.13976,0 -0.22483,-0.05469 -0.0608,-0.03646 -0.10938,-0.139759 -0.0425,-0.109377 -0.0972,-0.145836 l -1.34291,-0.899322 0.0547,0.559038 q 0.006,0.04254 0.0911,0.176218 0.0911,0.133683 0.0911,0.224831 0,0.133683 -0.17014,0.249136 -0.10331,0.07292 -0.26129,0.07292 -0.22483,0 -0.41928,-0.12153 -0.21268,-0.12153 -0.25522,-0.309901 -0.006,-0.03646 -0.006,-0.06076 0,-0.08507 0.079,-0.145836 0.0851,-0.06684 0.0851,-0.12153 l -0.19444,-3.463605 q -0.006,-0.079 -0.0669,-0.206601 -0.0608,-0.133683 -0.0608,-0.194448 0,-0.157989 0.2066,-0.255213 0.17014,-0.08507 0.34636,-0.08507 0.11545,0 0.20052,0.03646 0.0851,0.03038 0.11546,0.1033 0.0304,0.06684 0.0729,0.06684 0.006,0.0061 0.37066,-0.133683 0.42536,-0.157989 0.74741,-0.157989 0.46789,0 0.75349,0.328131 0.079,0.09115 0.079,0.255213 0,0.443584 -0.51042,1.251759 -0.48612,0.759562 -1.00263,1.2153 l 1.56774,1.09377 q 0.006,0.0061 0.30383,0.145836 0.17014,0.07899 0.2066,0.218754 z m -1.6285,-3.773507 q -0.13369,0 -0.42536,0.255213 -0.0608,0.04861 -0.44966,0.419279 l -0.0122,1.087693 q 0.37674,-0.413202 0.68056,-0.917551 0.30383,-0.510426 0.30383,-0.72918 0,-0.115454 -0.0972,-0.115454 z" />
    </g>
    <g
       style="font-size:3.84599px;line-height:1.25;font-family:'Geometric Sans Serif v1';-inkscape-font-specification:'Geometric Sans Serif v1';display:inline;stroke-width:0.0961501"
       id="text2930-7"
       transform="scale(1.0230393,0.97747955)"
       aria-label="kkampf!">
      <path
         id="path17697"
         style="font-style:normal;font-variant:normal;font-weight:normal;font-stretch:normal;font-family:'Marker Felt';-inkscape-font-specification:'Marker Felt';stroke-width:0.0961501"
         d="m 93.376103,125.52812 q 0.0038,0.0269 0.0038,0.0538 0,0.23076 -0.257681,0.31152 -0.05,0.0154 -0.08846,0.0154 -0.06923,0 -0.126918,-0.0654 -0.08846,-0.0962 -0.107687,-0.10768 l -0.692279,-0.4846 v 0.32306 q 0,0.0346 0.01923,0.0885 0.02308,0.05 0.02308,0.0769 0,0.0423 -0.04231,0.0885 -0.09615,0.1 -0.276911,0.1 -0.173069,0 -0.223067,-0.11538 -0.02308,-0.0538 -0.01538,-0.11154 0.01538,-0.1 0.01538,-0.13461 v -2.53066 q -0.0038,-0.0692 0.01538,-0.20768 0.03461,-0.0846 0.211529,-0.0846 0.23076,0 0.296141,0.0846 0.03461,0.0462 0.03461,0.1 0,0.0423 -0.03077,0.13077 -0.02692,0.0885 -0.02692,0.13845 -0.0077,0.22307 0,1.25764 0.215376,-0.20768 0.553823,-0.54228 0.04615,-0.0462 0.119226,-0.16538 0.04231,-0.0692 0.126917,-0.0923 0.02308,-0.008 0.05384,-0.008 0.111534,0 0.226914,0.0846 0.119225,0.0846 0.119225,0.18076 0,0.0538 -0.07692,0.13076 -0.07692,0.0769 -0.15384,0.14615 l -0.638434,0.66151 0.684586,0.49229 q 0.0077,0.008 0.153839,0.0615 0.08461,0.0346 0.1,0.12307 z" />
      <path
         id="path17699"
         style="font-style:normal;font-variant:normal;font-weight:normal;font-stretch:normal;font-family:'Marker Felt';-inkscape-font-specification:'Marker Felt';stroke-width:0.0961501"
         d="m 95.419711,125.52812 q 0.0038,0.0269 0.0038,0.0538 0,0.23076 -0.257681,0.31152 -0.05,0.0154 -0.08846,0.0154 -0.06923,0 -0.126918,-0.0654 -0.08846,-0.0962 -0.107688,-0.10768 l -0.692278,-0.4846 v 0.32306 q 0,0.0346 0.01923,0.0885 0.02308,0.05 0.02308,0.0769 0,0.0423 -0.04231,0.0885 -0.09615,0.1 -0.276911,0.1 -0.17307,0 -0.223067,-0.11538 -0.02308,-0.0538 -0.01538,-0.11154 0.01538,-0.1 0.01538,-0.13461 v -2.53066 q -0.0038,-0.0692 0.01538,-0.20768 0.03461,-0.0846 0.21153,-0.0846 0.230759,0 0.296141,0.0846 0.03461,0.0462 0.03461,0.1 0,0.0423 -0.03077,0.13077 -0.02692,0.0885 -0.02692,0.13845 -0.0077,0.22307 0,1.25764 0.215376,-0.20768 0.553823,-0.54228 0.04615,-0.0462 0.119225,-0.16538 0.04231,-0.0692 0.126918,-0.0923 0.02308,-0.008 0.05384,-0.008 0.111534,0 0.226913,0.0846 0.119226,0.0846 0.119226,0.18076 0,0.0538 -0.07692,0.13076 -0.07692,0.0769 -0.153839,0.14615 l -0.638435,0.66151 0.684587,0.49229 q 0.0077,0.008 0.153839,0.0615 0.08461,0.0346 0.1,0.12307 z" />
      <path
         id="path17701"
         style="font-style:normal;font-variant:normal;font-weight:normal;font-stretch:normal;font-family:'Marker Felt';-inkscape-font-specification:'Marker Felt';stroke-width:0.0961501"
         d="m 97.380682,125.66658 q -0.05769,0.18845 -0.284603,0.18845 -0.07692,0 -0.123071,-0.0269 -0.06154,-0.0423 -0.08461,-0.16922 -0.04615,-0.21923 -0.0923,-0.3423 -0.01154,0.21153 -0.230759,0.43075 -0.219222,0.21538 -0.442289,0.21538 -0.280758,0 -0.388445,-0.37306 -0.03846,-0.13846 -0.03846,-0.26153 0,-0.35768 0.365369,-0.61151 0.299987,-0.17692 0.60382,-0.34999 0.01538,-0.0654 0.01538,-0.12691 0,-0.11923 -0.06538,-0.13846 -0.06538,-0.0231 -0.111533,-0.0231 -0.08077,0 -0.13461,0.0538 -0.05,0.05 -0.09615,0.0961 -0.04615,0.0308 -0.119225,0.1423 -0.05769,0.0885 -0.126918,0.0961 -0.1,0.0115 -0.180762,-0.0692 -0.08076,-0.0808 -0.08076,-0.18845 0,-0.0615 0.03077,-0.11154 0.08846,-0.14614 0.265373,-0.25383 0.269219,-0.16153 0.673048,-0.16153 0.257681,0 0.353831,0.24614 0.06154,0.16538 0.0923,0.61921 0.03461,0.54997 0.08461,0.80381 0.0077,0.05 0.06538,0.12691 0.05769,0.0769 0.05769,0.13461 0,0.0269 -0.0077,0.0538 z m -0.669202,-0.94612 q -0.115379,0.0615 -0.230759,0.12692 -0.111534,0.0654 -0.207684,0.17307 -0.138455,0.15769 -0.138455,0.26922 0,0.0923 0.06923,0.1923 0.03846,0.0538 0.08461,0.0538 0.1,0 0.215376,-0.22306 0.119225,-0.22307 0.207683,-0.59229 z" />
      <path
         id="path17703"
         style="font-style:normal;font-variant:normal;font-weight:normal;font-stretch:normal;font-family:'Marker Felt';-inkscape-font-specification:'Marker Felt';stroke-width:0.0961501"
         d="m 100.15538,125.82811 q -0.05,0.1423 -0.226912,0.1423 -0.223067,0 -0.330755,-0.15384 -0.05769,-0.0846 -0.05769,-0.58074 0,-0.0731 0,-0.20384 0.0038,-0.13461 0.0038,-0.18845 0,-0.26922 -0.02692,-0.27691 -0.05769,-0.0231 -0.392291,1.07687 0,0.004 -0.01538,0.18461 -0.0077,0.11153 -0.07692,0.14999 -0.05,0.0269 -0.111533,0.0269 -0.111534,0 -0.215376,-0.0731 -0.103841,-0.0731 -0.130763,-0.17307 -0.03846,-0.1423 -0.03461,-0.56151 0.0077,-0.61152 0.0077,-0.58844 -0.0038,-0.16153 -0.02308,-0.16538 -0.08846,0.14615 -0.15384,0.28076 -0.157685,0.32306 -0.180761,0.53844 -0.01923,0.0461 -0.0038,0.18076 0.01538,0.11538 -0.03461,0.15769 -0.05,0.0423 -0.13461,0.0423 -0.0923,0 -0.188453,-0.05 -0.0923,-0.0538 -0.13461,-0.11922 -0.06154,-0.0961 -0.06923,-0.56152 0,-0.45382 0,-0.90765 -0.0038,-0.0385 -0.03077,-0.10769 -0.02692,-0.0692 -0.02692,-0.10384 0,-0.0346 0.01923,-0.0654 0.05,-0.0769 0.253836,-0.0769 0.249989,0 0.299987,0.12307 0.01154,0.0269 0.01154,0.0538 0,0.0346 -0.03846,0.1 -0.03461,0.0654 -0.03461,0.10769 v 0.43844 q 0.11538,-0.2423 0.303833,-0.61536 0.02308,-0.05 0.04231,-0.1 0.02308,-0.05 0.06538,-0.0885 0.04231,-0.0385 0.142301,-0.0385 0.15384,0 0.30768,0.0692 0.157685,0.0692 0.161531,0.16537 0.0038,0.1 -0.03077,0.15384 -0.03077,0.05 -0.03077,0.0846 l -0.0077,0.83073 q 0.06154,-0.13846 0.223068,-0.65382 0.126918,-0.39229 0.192299,-0.43844 0.08461,-0.0615 0.24999,-0.0615 0.307681,0 0.319221,0.17692 -0.004,0.46921 0,1.56916 0,0.0423 0.0769,0.10384 0.0769,0.0577 0.0769,0.12308 0,0.0308 -0.0154,0.0731 z" />
      <path
         id="path17705"
         style="font-style:normal;font-variant:normal;font-weight:normal;font-stretch:normal;font-family:'Marker Felt';-inkscape-font-specification:'Marker Felt';stroke-width:0.0961501"
         d="m 101.92947,124.76662 q 0,0.40767 -0.17307,0.74227 -0.1923,0.36153 -0.47306,0.36153 -0.15769,0 -0.32306,-0.24999 v 0.49228 q 0,0.0615 0.05,0.15769 0.05,0.0962 0.05,0.14615 0,0.0385 -0.0192,0.0769 -0.0808,0.17307 -0.31537,0.17307 -0.1923,0 -0.23845,-0.13846 -0.0154,-0.0461 -0.0154,-0.0885 0,-0.0423 0.0231,-0.11538 0.0269,-0.0692 0.0269,-0.11922 v -2.18837 q 0,-0.0423 -0.0308,-0.1 -0.0308,-0.0615 -0.0308,-0.1 0,-0.0308 0.0154,-0.0654 0.0461,-0.10769 0.28461,-0.10769 0.14999,0 0.19999,0.0615 0.0192,0.0231 0.0192,0.0577 0,0.0269 -0.0192,0.0846 -0.0192,0.0577 -0.0231,0.0885 0.17692,-0.25383 0.41537,-0.25383 0.31921,0 0.46536,0.36152 0.11154,0.28076 0.11154,0.72305 z m -0.4846,0 q 0,-0.36537 -0.0154,-0.46537 -0.0385,-0.24999 -0.1923,-0.24999 -0.0885,0 -0.16153,0.2423 -0.0692,0.23845 -0.0692,0.47306 0,0.17691 0.0769,0.41536 0.0769,0.25384 0.15384,0.25384 0.0923,0 0.15384,-0.23461 0.0538,-0.20383 0.0538,-0.43459 z" />
      <path
         id="path17707"
         style="font-style:normal;font-variant:normal;font-weight:normal;font-stretch:normal;font-family:'Marker Felt';-inkscape-font-specification:'Marker Felt';stroke-width:0.0961501"
         d="m 103.64033,124.00511 q -0.0346,0.1 -0.1423,0.11153 -0.10384,0.0115 -0.20384,0.0192 l -0.27691,0.0769 -0.004,1.24995 q 0,0.1 0.0731,0.18845 0.0731,0.0885 0.0731,0.13461 0,0.0269 -0.0115,0.0539 -0.0538,0.13461 -0.22692,0.13461 -0.11153,0 -0.20768,-0.0577 -0.0923,-0.0538 -0.11153,-0.13461 -0.0231,-0.1 -0.0231,-0.25384 v -1.19995 q -0.0769,0.0346 -0.16153,0.0231 -0.26537,-0.0346 -0.26537,-0.21538 0,-0.0538 0.0346,-0.11538 0.0231,-0.0385 0.13845,-0.0577 0.17692,-0.0308 0.23076,-0.05 0.008,-0.5769 0.1,-0.82689 0.12692,-0.34999 0.49998,-0.46537 0.0269,-0.008 0.0615,-0.008 0.10769,0 0.22307,0.0692 0.11923,0.0692 0.10769,0.12307 -0.0154,0.0808 -0.13846,0.11923 -0.14614,0.05 -0.1923,0.10384 -0.13845,0.16922 -0.18076,0.35383 -0.0346,0.1423 -0.0269,0.40768 0.0269,-0.008 0.18845,-0.0577 0.10385,-0.0308 0.18846,-0.0269 0.0962,0.004 0.17691,0.0808 0.0846,0.0769 0.0846,0.16538 0,0.0269 -0.008,0.0538 z" />
      <path
         id="path17709"
         style="font-style:normal;font-variant:normal;font-weight:normal;font-stretch:normal;font-family:'Marker Felt';-inkscape-font-specification:'Marker Felt';stroke-width:0.0961501"
         d="m 104.48266,122.89747 q 0.008,0.0269 0.008,0.0538 0,0.0385 -0.0269,0.11538 -0.0269,0.0731 -0.0269,0.12307 v 1.27687 q 0,0.0577 0.0269,0.15768 0.0308,0.1 0.0308,0.14231 0,0.0731 -0.0615,0.11922 -0.0577,0.0423 -0.14999,0.0423 -0.19999,0 -0.30768,-0.13846 -0.0346,-0.0461 -0.0346,-0.10384 0,-0.0192 0.008,-0.0692 0.008,-0.0538 0.004,-0.0884 -0.0346,-0.48075 -0.0346,-0.99227 0,-0.66536 0.0577,-0.73074 0.0423,-0.05 0.1923,-0.05 0.27691,0 0.31537,0.14231 z m 0,2.42297 q 0.0192,0.0423 0.0192,0.0923 0,0.0346 -0.0154,0.11154 -0.0115,0.0769 -0.0115,0.11922 0,-0.008 0.0115,0.11538 0.004,0.0654 -0.0269,0.11154 -0.0423,0.0692 -0.15768,0.0692 -0.19999,0 -0.30383,-0.13461 -0.0269,-0.0385 -0.0269,-0.11922 0,-0.0308 0.008,-0.13846 0.008,-0.0961 0.004,-0.15768 0,-0.0115 -0.0115,-0.0808 -0.0115,-0.0461 0.004,-0.0808 0.0308,-0.0731 0.17307,-0.0731 0.26153,0 0.3346,0.16538 z" />
    </g>
    <g
       style="font-size:3.84598px;line-height:1.25;font-family:'Geometric Sans Serif v1';-inkscape-font-specification:'Geometric Sans Serif v1';display:inline;stroke-width:0.0961501"
       id="text2930-7-9"
       transform="matrix(0.96157764,-0.34925327,0.33369972,0.91875502,0,0)"
       aria-label="att">
      <path
         id="path17635"
         style="font-style:normal;font-variant:normal;font-weight:normal;font-stretch:normal;font-family:'Marker Felt';-inkscape-font-specification:'Marker Felt';stroke-width:0.0961501"
         d="m 87.927015,74.043974 q -0.05769,0.188453 -0.284602,0.188453 -0.07692,0 -0.123072,-0.02692 -0.06153,-0.0423 -0.08461,-0.169223 -0.04615,-0.219221 -0.0923,-0.342292 -0.01154,0.211529 -0.230759,0.43075 -0.21922,0.215375 -0.442287,0.215375 -0.280757,0 -0.388444,-0.37306 -0.03846,-0.138456 -0.03846,-0.261527 0,-0.357676 0.365368,-0.611511 0.299986,-0.176915 0.603819,-0.349984 0.01538,-0.06538 0.01538,-0.126917 0,-0.119226 -0.06538,-0.138456 -0.06538,-0.02308 -0.111533,-0.02308 -0.08077,0 -0.13461,0.05384 -0.05,0.05 -0.09615,0.09615 -0.04615,0.03077 -0.119225,0.142301 -0.05769,0.08846 -0.126918,0.09615 -0.09999,0.01154 -0.180761,-0.06923 -0.08076,-0.08077 -0.08076,-0.188453 0,-0.06154 0.03077,-0.111534 0.08846,-0.146147 0.265373,-0.253834 0.269219,-0.161531 0.673046,-0.161531 0.257681,0 0.353831,0.246142 0.06154,0.165377 0.0923,0.619203 0.03461,0.549975 0.08461,0.80381 0.0077,0.05 0.06538,0.126917 0.05769,0.07692 0.05769,0.134609 0,0.02692 -0.0077,0.05384 z m -0.6692,-0.946111 q -0.11538,0.06154 -0.230759,0.126917 -0.111534,0.06538 -0.207683,0.17307 -0.138455,0.157685 -0.138455,0.269218 0,0.0923 0.06923,0.192299 0.03846,0.05384 0.08461,0.05384 0.1,0 0.215375,-0.223067 0.119225,-0.223067 0.207683,-0.592281 z" />
      <path
         id="path17637"
         style="font-style:normal;font-variant:normal;font-weight:normal;font-stretch:normal;font-family:'Marker Felt';-inkscape-font-specification:'Marker Felt';stroke-width:0.0961501"
         d="m 89.415829,72.45943 q -0.03077,0 -0.09615,-0.02307 -0.06538,-0.02692 -0.09999,-0.02692 -0.02692,0 -0.05384,0.01154 l -0.142301,0.07307 v 1.315325 q 0,0.07307 0.07692,0.188453 0.08077,0.11538 0.06538,0.184607 -0.01923,0.08461 -0.115379,0.13461 -0.0923,0.05 -0.199991,0.05 -0.203837,0 -0.280757,-0.180762 -0.02308,-0.05384 -0.02692,-0.342292 -0.0038,-0.192299 0.0038,-0.599973 0.0077,-0.461517 0.0077,-0.584589 -0.02308,0.0077 -0.07692,0.05384 -0.05384,0.04231 -0.107688,0.04231 -0.04231,0 -0.107687,-0.02308 -0.269219,-0.0923 -0.269219,-0.188453 0,-0.02308 0.01154,-0.05 0.02692,-0.06154 0.1,-0.06923 0.111533,-0.01538 0.134609,-0.02692 0.08846,-0.03461 0.323062,-0.165377 v -0.334601 q 0,-0.03846 -0.02308,-0.1 -0.01923,-0.06538 -0.01923,-0.09615 0,-0.03461 0.01923,-0.06538 0.1,-0.153839 0.269219,-0.153839 0.196145,0 0.27691,0.153839 0.03077,0.06153 0.03077,0.09999 0,0.04615 -0.04615,0.09615 -0.04615,0.05 -0.04615,0.0923 v 0.188453 q 0.06923,-0.03077 0.153839,-0.103841 0.06538,-0.05384 0.111533,-0.05384 0.01923,0 0.04231,0.0077 0.242297,0.06538 0.242297,0.292295 0,0.07307 -0.04615,0.138455 -0.04231,0.06538 -0.111533,0.06538 z" />
      <path
         id="path17639"
         style="font-style:normal;font-variant:normal;font-weight:normal;font-stretch:normal;font-family:'Marker Felt';-inkscape-font-specification:'Marker Felt';stroke-width:0.0961501"
         d="m 91.125433,72.45943 q -0.03077,0 -0.09615,-0.02307 -0.06538,-0.02692 -0.1,-0.02692 -0.02692,0 -0.05384,0.01154 l -0.142301,0.07307 v 1.315325 q 0,0.07307 0.07692,0.188453 0.08077,0.11538 0.06538,0.184607 -0.01923,0.08461 -0.115379,0.13461 -0.0923,0.05 -0.199991,0.05 -0.203837,0 -0.280757,-0.180762 -0.02308,-0.05384 -0.02692,-0.342292 -0.0038,-0.192299 0.0038,-0.599973 0.0077,-0.461517 0.0077,-0.584589 -0.02308,0.0077 -0.07692,0.05384 -0.05384,0.04231 -0.107688,0.04231 -0.04231,0 -0.107687,-0.02308 -0.269219,-0.0923 -0.269219,-0.188453 0,-0.02308 0.01154,-0.05 0.02692,-0.06154 0.1,-0.06923 0.111533,-0.01538 0.134609,-0.02692 0.08846,-0.03461 0.323062,-0.165377 v -0.334601 q 0,-0.03846 -0.02308,-0.1 -0.01923,-0.06538 -0.01923,-0.09615 0,-0.03461 0.01923,-0.06538 0.1,-0.153839 0.269219,-0.153839 0.196145,0 0.27691,0.153839 0.03077,0.06153 0.03077,0.09999 0,0.04615 -0.04615,0.09615 -0.04615,0.05 -0.04615,0.0923 v 0.188453 q 0.06923,-0.03077 0.153839,-0.103841 0.06538,-0.05384 0.111533,-0.05384 0.01923,0 0.04231,0.0077 0.242297,0.06538 0.242297,0.292295 0,0.07307 -0.04615,0.138455 -0.04231,0.06538 -0.111533,0.06538 z" />
    </g>
    <g
       style="font-size:3.84598px;line-height:1.25;font-family:'Geometric Sans Serif v1';-inkscape-font-specification:'Geometric Sans Serif v1';display:inline;stroke-width:0.0961501"
       id="text2930-7-9-0"
       transform="matrix(0.95515759,-0.36644696,0.35012772,0.91262088,0,0)"
       aria-label="dec">
      <path
         id="path17628"
         style="font-style:normal;font-variant:normal;font-weight:normal;font-stretch:normal;font-family:'Marker Felt';-inkscape-font-specification:'Marker Felt';stroke-width:0.0961501"
         d="m 80.997305,92.558002 q -0.04615,0.103841 -0.284603,0.103841 -0.149993,0 -0.199991,-0.06154 -0.01923,-0.01923 -0.01923,-0.05384 0,-0.02692 0.01923,-0.08461 0.01923,-0.05769 0.02308,-0.08846 -0.176915,0.249988 -0.415366,0.249988 -0.319216,0 -0.465363,-0.361522 -0.111534,-0.27691 -0.111534,-0.719198 0,-0.407674 0.173069,-0.742274 0.192299,-0.365368 0.473056,-0.365368 0.157685,0 0.323062,0.253834 v -0.496131 q 0,-0.06154 -0.05,-0.157685 -0.05,-0.09615 -0.05,-0.146147 0,-0.03846 0.01923,-0.07692 0.08076,-0.173069 0.31537,-0.173069 0.192299,0 0.238451,0.138455 0.01538,0.04615 0.01538,0.08846 0,0.04231 -0.02692,0.115379 -0.02308,0.06923 -0.02308,0.119226 v 2.192208 q 0,0.04231 0.03077,0.103842 0.03077,0.05769 0.03077,0.09615 0,0.03077 -0.01538,0.06538 z m -0.530746,-1.015339 q 0,-0.176915 -0.07307,-0.415366 -0.08077,-0.253835 -0.157685,-0.253835 -0.08846,0 -0.142302,0.234605 -0.0423,0.192299 -0.0423,0.434596 0,0.04231 -0.0038,0.138455 0,0.0923 0,0.142302 0,0.434595 0.188453,0.434595 0.08846,0 0.161531,-0.249988 0.06923,-0.230759 0.06923,-0.465364 z" />
      <path
         id="path17630"
         style="font-style:normal;font-variant:normal;font-weight:normal;font-stretch:normal;font-family:'Marker Felt';-inkscape-font-specification:'Marker Felt';stroke-width:0.0961501"
         d="m 82.626798,92.17725 q -0.03077,0.146147 -0.207683,0.311524 -0.02692,0.04231 -0.211529,0.111533 -0.211528,0.08077 -0.365368,0.06923 -0.288448,-0.01923 -0.453825,-0.330754 -0.149993,-0.288449 -0.149993,-0.70766 0,-0.453826 0.169223,-0.796118 0.188453,-0.376906 0.503823,-0.423058 0.06154,-0.0077 0.119225,-0.0077 0.457672,0 0.503824,0.561513 0.02308,0.257681 -0.203837,0.561513 -0.246143,0.3346 -0.630741,0.46921 0.04231,0.153839 0.06538,0.199991 0.05384,0.09615 0.146147,0.09615 0.08846,0 0.188453,-0.06923 0.08461,-0.05769 0.115379,-0.111533 0.01538,-0.0077 0.03077,-0.08461 0.01538,-0.08076 0.08077,-0.115379 0.02308,-0.01154 0.05384,-0.01154 0.0923,0 0.176915,0.0923 0.08846,0.08846 0.06923,0.184607 z m -0.603819,-1.353785 q -0.153839,0 -0.249988,0.219221 -0.126918,0.292294 -0.103842,0.576897 0.180761,-0.05769 0.334601,-0.269219 0.153839,-0.211529 0.153839,-0.376906 0,-0.149993 -0.13461,-0.149993 z" />
      <path
         id="path17632"
         style="font-style:normal;font-variant:normal;font-weight:normal;font-stretch:normal;font-family:'Marker Felt';-inkscape-font-specification:'Marker Felt';stroke-width:0.0961501"
         d="m 84.250223,91.942645 q -0.0038,0.08461 -0.07307,0.173069 -0.107688,0.126917 -0.138456,0.192299 -0.242296,0.369214 -0.499977,0.369214 -0.303833,0 -0.473056,-0.307678 -0.149993,-0.280757 -0.149993,-0.707661 0,-0.488439 0.184607,-0.849961 0.203837,-0.399982 0.526899,-0.399982 0.253835,0 0.41152,0.280756 0.130764,0.238451 0.130764,0.519208 0,0.07692 -0.01154,0.134609 -0.02692,0.130763 -0.219221,0.130763 -0.149993,0 -0.230759,-0.08461 -0.03846,-0.04231 -0.03846,-0.196145 0,-0.03846 0.0038,-0.111534 0,-0.07692 0,-0.111533 0,-0.173069 -0.06154,-0.173069 -0.06538,0 -0.138456,0.380752 -0.07307,0.376906 -0.07307,0.70766 0,0.384598 0.115379,0.384598 0.149993,0 0.223067,-0.242297 0.03077,-0.03461 0.03461,-0.138455 0,-0.0923 0.04615,-0.119225 0.04615,-0.03077 0.13461,-0.03077 0.115379,0 0.199991,0.05 0.1,0.05769 0.09615,0.149993 z" />
    </g>
    <g
       style="font-size:3.84598px;line-height:1.25;font-family:'Geometric Sans Serif v1';-inkscape-font-specification:'Geometric Sans Serif v1';display:inline;stroke-width:0.0961501"
       id="text2930-7-9-0-9"
       transform="matrix(0.9757934,-0.30730547,0.29362002,0.93233769,0,0)"
       aria-label="sus">
      <path
         id="path17642"
         style="font-style:normal;font-variant:normal;font-weight:normal;font-stretch:normal;font-family:'Marker Felt';-inkscape-font-specification:'Marker Felt';stroke-width:0.0961501"
         d="m 80.854603,103.87263 q 0,0.26922 -0.192299,0.46152 -0.192299,0.18845 -0.453826,0.18845 -0.165377,0 -0.342292,-0.15768 -0.138455,-0.12692 -0.249989,-0.31153 -0.09615,-0.16153 -0.08461,-0.20383 0.0423,-0.0961 0.265372,-0.0961 0.0923,0 0.146148,0.0269 0.0923,0.05 0.103841,0.12692 0.01154,0.0884 0.03846,0.11153 0.08076,0.12307 0.146147,0.12307 0.05,0 0.0923,-0.0654 0.04615,-0.0692 0.04615,-0.16153 0,-0.0577 -0.01923,-0.11538 -0.01923,-0.0577 -0.207682,-0.17692 -0.226913,-0.1423 -0.323063,-0.24999 -0.165377,-0.1846 -0.165377,-0.43075 0,-0.28844 0.169223,-0.50382 0.169223,-0.21922 0.43075,-0.21922 0.269219,0 0.41152,0.20384 0.115379,0.16537 0.09615,0.3346 0.04231,0.0461 0.04231,0.15384 0,0.11538 -0.08461,0.19614 -0.08461,0.0808 -0.17307,0.0808 -0.130763,0 -0.226912,-0.17307 -0.02692,-0.0461 -0.02692,-0.12307 0,-0.0346 0.0038,-0.0961 0.0077,-0.0654 0.0077,-0.0923 0,-0.1 -0.07307,-0.1 -0.111533,0 -0.111533,0.21922 0,0.22307 0.146147,0.35768 0.05769,0.0538 0.249989,0.15383 0.165377,0.0846 0.234604,0.17307 0.103842,0.13461 0.103842,0.36537 z" />
      <path
         id="path17644"
         style="font-style:normal;font-variant:normal;font-weight:normal;font-stretch:normal;font-family:'Marker Felt';-inkscape-font-specification:'Marker Felt';stroke-width:0.0961501"
         d="m 82.574417,102.51115 q 0.0077,0.0577 -0.02307,0.12308 -0.03846,0.0884 -0.04615,0.13076 0,0.79996 -0.06538,1.11149 -0.142301,0.65381 -0.603819,0.65381 -0.673046,0 -0.673046,-1.22686 0,-0.33076 0.05,-0.69997 -0.02692,-0.0885 -0.02692,-0.15769 0,-0.11153 0.07307,-0.18845 0.06154,-0.0654 0.180761,-0.0654 0.09615,0 0.180761,0.0423 0.08461,0.0385 0.1,0.0923 0.0077,0.0269 0.0077,0.0538 0,0.05 -0.04231,0.16153 -0.04231,0.10769 -0.03461,0.17692 -0.03846,0.21537 -0.03846,0.54228 0,0.33076 0.04231,0.54998 0.05384,0.25383 0.149993,0.25383 0.161532,0 0.211529,-0.54613 0.02692,-0.27306 0.02692,-0.86919 0,-0.0385 -0.01154,-0.11153 -0.01154,-0.0731 -0.01154,-0.10769 0,-0.0923 0.06923,-0.12692 0.03846,-0.0192 0.107687,-0.0192 0.126918,0 0.234605,0.0538 0.126918,0.0654 0.142301,0.17306 z" />
      <path
         id="path17646"
         style="font-style:normal;font-variant:normal;font-weight:normal;font-stretch:normal;font-family:'Marker Felt';-inkscape-font-specification:'Marker Felt';stroke-width:0.0961501"
         d="m 84.104578,103.87263 q 0,0.26922 -0.192299,0.46152 -0.192299,0.18845 -0.453826,0.18845 -0.165377,0 -0.342292,-0.15768 -0.138455,-0.12692 -0.249989,-0.31153 -0.09615,-0.16153 -0.08461,-0.20383 0.04231,-0.0961 0.265373,-0.0961 0.0923,0 0.146147,0.0269 0.0923,0.05 0.103841,0.12692 0.01154,0.0884 0.03846,0.11153 0.08077,0.12307 0.146147,0.12307 0.05,0 0.0923,-0.0654 0.04615,-0.0692 0.04615,-0.16153 0,-0.0577 -0.01923,-0.11538 -0.01923,-0.0577 -0.207683,-0.17692 -0.226913,-0.1423 -0.323063,-0.24999 -0.165377,-0.1846 -0.165377,-0.43075 0,-0.28844 0.169223,-0.50382 0.169224,-0.21922 0.43075,-0.21922 0.269219,0 0.41152,0.20384 0.115379,0.16537 0.09615,0.3346 0.04231,0.0461 0.04231,0.15384 0,0.11538 -0.08461,0.19614 -0.08461,0.0808 -0.173069,0.0808 -0.130764,0 -0.226913,-0.17307 -0.02692,-0.0461 -0.02692,-0.12307 0,-0.0346 0.0038,-0.0961 0.0077,-0.0654 0.0077,-0.0923 0,-0.1 -0.07307,-0.1 -0.111533,0 -0.111533,0.21922 0,0.22307 0.146147,0.35768 0.05769,0.0538 0.249989,0.15383 0.165377,0.0846 0.234605,0.17307 0.103841,0.13461 0.103841,0.36537 z" />
    </g>
    <g
       style="font-size:3.84598px;line-height:1.25;font-family:'Geometric Sans Serif v1';-inkscape-font-specification:'Geometric Sans Serif v1';display:inline;stroke-width:0.0961501"
       id="text2930-7-9-0-3"
       transform="matrix(0.99623689,-0.23264021,0.22227988,0.95187076,0,0)"
       aria-label="rel">
      <path
         id="path17649"
         style="font-style:normal;font-variant:normal;font-weight:normal;font-stretch:normal;font-family:'Marker Felt';-inkscape-font-specification:'Marker Felt';stroke-width:0.0961501"
         d="m 84.672767,112.91695 q -0.01538,0.0808 -0.146147,0.11154 -0.153839,0.0385 -0.196145,0.0884 l -0.626895,0.72305 v 0.58459 q 0,0.0846 0.04615,0.17307 0.05,0.0846 0.05,0.13076 0,0.0461 -0.02692,0.10384 -0.06538,0.14615 -0.265373,0.14615 -0.138455,0 -0.219221,-0.0885 -0.05384,-0.0577 -0.05384,-0.14615 0,-0.0308 0.0077,-0.1 0.0077,-0.0692 0.0077,-0.11154 v -1.43839 q 0,-0.0346 -0.03077,-0.0846 -0.03077,-0.05 -0.03077,-0.0808 0,-0.0231 0.01538,-0.0538 0.05,-0.0923 0.311524,-0.0923 0.203837,0 0.230759,0.0961 0.01154,0.0385 0.01154,0.0654 0,0.0423 -0.03077,0.0654 -0.03077,0.0231 -0.03077,0.0461 l 0.0077,0.13845 0.330754,-0.34998 q 0.05769,-0.0654 0.119226,-0.13076 0.06538,-0.0654 0.149993,-0.0731 0.130763,-0.0115 0.249989,0.0577 0.123071,0.0692 0.123071,0.18076 0,0.0192 -0.0038,0.0385 z" />
      <path
         id="path17651"
         style="font-style:normal;font-variant:normal;font-weight:normal;font-stretch:normal;font-family:'Marker Felt';-inkscape-font-specification:'Marker Felt';stroke-width:0.0961501"
         d="m 86.068317,114.47457 q -0.03077,0.14615 -0.207683,0.31153 -0.02692,0.0423 -0.211529,0.11153 -0.211529,0.0808 -0.365368,0.0692 -0.288449,-0.0192 -0.453826,-0.33075 -0.149993,-0.28845 -0.149993,-0.70766 0,-0.45383 0.169223,-0.79612 0.188453,-0.37691 0.503824,-0.42306 0.06154,-0.008 0.119225,-0.008 0.457672,0 0.503823,0.56151 0.02308,0.25768 -0.203837,0.56151 -0.246142,0.3346 -0.63074,0.46921 0.0423,0.15384 0.06538,0.19999 0.05384,0.0962 0.146148,0.0962 0.08846,0 0.188453,-0.0692 0.08461,-0.0577 0.115379,-0.11154 0.01538,-0.008 0.03077,-0.0846 0.01538,-0.0808 0.08076,-0.11538 0.02308,-0.0115 0.05384,-0.0115 0.0923,0 0.176915,0.0923 0.08846,0.0885 0.06923,0.1846 z m -0.603819,-1.35378 q -0.153839,0 -0.249989,0.21922 -0.126917,0.2923 -0.103841,0.5769 0.180761,-0.0577 0.3346,-0.26922 0.153839,-0.21153 0.153839,-0.37691 0,-0.14999 -0.134609,-0.14999 z" />
      <path
         id="path17653"
         style="font-style:normal;font-variant:normal;font-weight:normal;font-stretch:normal;font-family:'Marker Felt';-inkscape-font-specification:'Marker Felt';stroke-width:0.0961501"
         d="m 86.943697,114.89763 q -0.07692,0.14615 -0.284602,0.14615 -0.192299,0 -0.269219,-0.13076 -0.02308,-0.0385 -0.02308,-0.0846 0,-0.0384 0.02692,-0.12691 0.02692,-0.0885 0.02692,-0.14615 l -0.01538,-2.4845 q 0,-0.20384 0,-0.20769 0.01154,-0.05 0.107688,-0.0808 0.09615,-0.0346 0.203836,-0.0346 0.157686,0 0.199991,0.0577 0.04231,0.0577 0.04231,0.11923 0,0.0423 -0.03077,0.1423 -0.03077,0.0961 -0.03077,0.15769 v 2.30758 q 0,0.0577 0.03077,0.15384 0.03461,0.0923 0.03461,0.13461 0,0.0423 -0.01923,0.0769 z" />
    </g>
    <g
       style="font-size:3.84598px;line-height:1.25;font-family:'Geometric Sans Serif v1';-inkscape-font-specification:'Geometric Sans Serif v1';display:inline;stroke-width:0.0961501"
       id="text2930-7-9-0-9-7"
       transform="matrix(0.9732373,-0.3153071,0.30126531,0.92989542,0,0)"
       aria-label="cv">
      <path
         id="path17656"
         style="font-style:normal;font-variant:normal;font-weight:normal;font-stretch:normal;font-family:'Marker Felt';-inkscape-font-specification:'Marker Felt';stroke-width:0.0961501"
         d="m 60.483139,100.53993 q -0.0038,0.0846 -0.07307,0.17307 -0.107687,0.12692 -0.138455,0.1923 -0.242297,0.36922 -0.499977,0.36922 -0.303833,0 -0.473056,-0.30768 -0.149993,-0.28076 -0.149993,-0.70766 0,-0.488441 0.184607,-0.849963 0.203837,-0.399982 0.526899,-0.399982 0.253835,0 0.41152,0.280756 0.130763,0.238451 0.130763,0.519208 0,0.07692 -0.01154,0.134609 -0.02692,0.130762 -0.219221,0.130762 -0.149994,0 -0.230759,-0.08461 -0.03846,-0.04231 -0.03846,-0.196145 0,-0.03846 0.0038,-0.111534 0,-0.07692 0,-0.111533 0,-0.173069 -0.06154,-0.173069 -0.06538,0 -0.138455,0.380752 -0.07307,0.376909 -0.07307,0.707659 0,0.3846 0.115379,0.3846 0.149993,0 0.223067,-0.2423 0.03077,-0.0346 0.03461,-0.13845 0,-0.0923 0.04615,-0.11923 0.04615,-0.0308 0.13461,-0.0308 0.115379,0 0.199991,0.05 0.09999,0.0577 0.09615,0.14999 z" />
      <path
         id="path17658"
         style="font-style:normal;font-variant:normal;font-weight:normal;font-stretch:normal;font-family:'Marker Felt';-inkscape-font-specification:'Marker Felt';stroke-width:0.0961501"
         d="m 62.434555,99.101538 q 0.02692,0.05 0.02692,0.103842 0,0.07692 -0.06538,0.192299 -0.0923,0.153839 -0.107687,0.196145 -0.169223,0.484596 -0.434596,1.223026 -0.05,0.25383 -0.126917,0.36152 -0.09615,0.14614 -0.284603,0.13461 -0.180761,-0.0115 -0.242297,-0.0731 -0.04615,-0.0462 -0.04615,-0.1423 0,-0.0154 0,-0.0423 0,-0.0269 0,-0.0385 0,-0.0692 -0.01154,-0.11538 l -0.39229,-1.407632 q -0.01154,-0.04615 -0.1,-0.149993 -0.07307,-0.08076 -0.05769,-0.149993 0.03846,-0.169223 0.273064,-0.169223 0.05,0 0.0923,0.0077 0.149993,0.03077 0.29614,0.526899 0.119226,0.46536 0.242297,0.92688 l 0.399982,-1.230712 q 0.03077,-0.0923 0.05,-0.126918 0.03461,-0.06154 0.09615,-0.09615 0.06538,-0.03461 0.157685,-0.03461 0.176915,0 0.234605,0.103841 z" />
    </g>
    <g
       style="font-size:3.84598px;line-height:1.25;font-family:'Geometric Sans Serif v1';-inkscape-font-specification:'Geometric Sans Serif v1';display:inline;stroke-width:0.0961501"
       id="text2930-7-9-0-9-7-6"
       transform="matrix(0.99556745,-0.23548854,0.22500137,0.95123113,0,0)"
       aria-label="cv">
      <path
         id="path17661"
         style="font-style:normal;font-variant:normal;font-weight:normal;font-stretch:normal;font-family:'Marker Felt';-inkscape-font-specification:'Marker Felt';stroke-width:0.0961501"
         d="m 64.256573,111.93639 q -0.0038,0.0846 -0.07307,0.17307 -0.107687,0.12692 -0.138455,0.1923 -0.242297,0.36921 -0.499978,0.36921 -0.303832,0 -0.473055,-0.30768 -0.149993,-0.28075 -0.149993,-0.70766 0,-0.48844 0.184607,-0.84996 0.203837,-0.39998 0.526899,-0.39998 0.253835,0 0.41152,0.28076 0.130763,0.23845 0.130763,0.5192 0,0.0769 -0.01154,0.13461 -0.02692,0.13077 -0.219221,0.13077 -0.149993,0 -0.230758,-0.0846 -0.03846,-0.0423 -0.03846,-0.19614 0,-0.0385 0.0038,-0.11153 0,-0.0769 0,-0.11154 0,-0.17307 -0.06154,-0.17307 -0.06538,0 -0.138455,0.38075 -0.07307,0.37691 -0.07307,0.70767 0,0.38459 0.11538,0.38459 0.149993,0 0.223066,-0.24229 0.03077,-0.0346 0.03461,-0.13846 0,-0.0923 0.04615,-0.11922 0.04615,-0.0308 0.134609,-0.0308 0.11538,0 0.199991,0.05 0.1,0.0577 0.09615,0.14999 z" />
      <path
         id="path17663"
         style="font-style:normal;font-variant:normal;font-weight:normal;font-stretch:normal;font-family:'Marker Felt';-inkscape-font-specification:'Marker Felt';stroke-width:0.0961501"
         d="m 66.207989,110.49799 q 0.02692,0.05 0.02692,0.10384 0,0.0769 -0.06538,0.1923 -0.0923,0.15384 -0.107688,0.19615 -0.169223,0.48459 -0.434595,1.22302 -0.05,0.25383 -0.126918,0.36152 -0.09615,0.14615 -0.284602,0.13461 -0.180761,-0.0115 -0.242297,-0.0731 -0.04615,-0.0461 -0.04615,-0.1423 0,-0.0154 0,-0.0423 0,-0.0269 0,-0.0385 0,-0.0692 -0.01154,-0.11538 l -0.39229,-1.40763 q -0.01154,-0.0461 -0.09999,-0.14999 -0.07307,-0.0808 -0.05769,-0.14999 0.03846,-0.16923 0.273065,-0.16923 0.05,0 0.0923,0.008 0.149994,0.0308 0.296141,0.5269 0.119225,0.46537 0.242297,0.92689 l 0.399982,-1.23072 q 0.03077,-0.0923 0.05,-0.12692 0.03461,-0.0615 0.09615,-0.0962 0.06538,-0.0346 0.157685,-0.0346 0.176915,0 0.234605,0.10384 z" />
    </g>
    <path
       inkscape:connector-curvature="0"
       id="path3066"
       d="m 90.341382,98.095508 c 2.849289,-1.763845 4.748815,-0.81408 4.748815,-0.81408 l 2.98497,1.221123 4.070413,-1.899526 3.39201,0.542722"
       style="fill:none;stroke:#000000;stroke-width:0.264583px;stroke-linecap:butt;stroke-linejoin:miter;stroke-opacity:1" />
    <path
       inkscape:connector-curvature="0"
       id="path3068"
       d="m 90.477062,79.642969 2.577929,-1.628163 2.984969,0.40704 2.442248,0.814083 3.120652,-0.135681 2.57793,-0.40704 0.81408,-0.814083"
       style="fill:none;stroke:#000000;stroke-width:0.264583px;stroke-linecap:butt;stroke-linejoin:miter;stroke-opacity:1" />
    <path
       inkscape:connector-curvature="0"
       id="path3070"
       d="m 90.070021,62.275876 4.341774,-1.899526 2.035207,0.271359 1.899526,0.678402 2.984972,0.135681 h 3.93473 1.22112"
       style="fill:none;stroke:#000000;stroke-width:0.264583px;stroke-linecap:butt;stroke-linejoin:miter;stroke-opacity:1" />
  </g>
  <g
     style="display:inline"
     inkscape:groupmode="layer"
     id="layer2"
     inkscape:label="Components" />
</svg>
